<svg xmlns="http://www.w3.org/2000/svg" xmlns:xlink="http://www.w3.org/1999/xlink" width="27.78in" height="6.76in" viewBox="0 0 2000 486.42">
  <defs>
    <style>
      .cls-1 {
        fill: none;
      }

      .cls-2 {
        isolation: isolate;
      }

      .cls-3 {
        fill: #26c7be;
      }

      .cls-4 {
        -webkit-clip-path: url(#clip-path);
        clip-path: url(#clip-path);
      }

      .cls-5 {
        opacity: 0.25;
      }

      .cls-12, .cls-5 {
        mix-blend-mode: soft-light;
      }

      .cls-6 {
        fill: #a7a9ac;
      }

      .cls-7 {
        fill: #d1d3d4;
      }

      .cls-8 {
        fill: #58595b;
      }

      .cls-9 {
        fill: #808285;
      }

      .cls-10 {
        fill: #6d6e71;
      }

      .cls-11 {
        fill: #414042;
      }

      .cls-12 {
        fill: url(#linear-gradient);
      }
    </style>
    <clipPath id="clip-path">
      <rect class="cls-1" y="0.42" width="2000" height="486"/>
    </clipPath>
    <linearGradient id="linear-gradient" x1="1000" y1="615.02" x2="1000" y2="-226.63" gradientUnits="userSpaceOnUse">
      <stop offset="0" stop-color="#fff"/>
      <stop offset="1"/>
    </linearGradient>
  </defs>
  <title>mock_TMTA</title>
  <g class="cls-2">
    <g id="Layer_1" data-name="Layer 1">
      <rect class="cls-3" y="0.42" width="2000" height="486"/>
      <g class="cls-4">
        <g>
          <g class="cls-5">
            <polygon class="cls-6" points="667.28 -118.76 847.96 183.02 674.45 125.86 667.28 -118.76"/>
            <polygon class="cls-7" points="667.28 -118.76 497.69 26.14 674.45 125.86 667.28 -118.76"/>
            <polygon class="cls-8" points="667.28 -118.76 624.3 -165.58 497.69 26.14 667.28 -118.76"/>
            <polygon class="cls-7" points="855.13 -165.58 947.45 -165.58 1000.78 -165.58 1000.78 -118.68 1000.78 -138.45 847.96 183.02 667.28 -118.76 855.13 -165.58"/>
            <polygon class="cls-6" points="921.51 180.25 1000.78 -89.68 1000.78 107.11 921.51 180.25"/>
            <polygon class="cls-9" points="921.51 180.25 1000.78 169.9 1000.78 107.11 921.51 180.25"/>
            <polygon class="cls-6" points="847.96 183.02 827.15 296.5 921.51 180.25 847.96 183.02"/>
            <polygon class="cls-10" points="921.51 180.25 827.15 296.5 984.05 347.95 921.51 180.25"/>
            <polygon class="cls-11" points="984.05 347.95 1000.78 324.51 1000.84 366.01 984.05 347.95"/>
            <polygon class="cls-8" points="1000.78 169.9 1000.78 249.55 1000.78 324.51 984.05 347.95 921.51 180.25 1000.78 169.9"/>
            <polygon class="cls-9" points="984.05 347.95 947.46 585.04 984.16 602.94 984.05 347.95"/>
            <polygon class="cls-9" points="984.05 347.95 1000.84 366.01 1000.78 594.39 984.16 602.94 984.05 347.95"/>
            <polygon class="cls-11" points="984.05 347.95 827.15 296.5 947.46 585.04 984.05 347.95"/>
            <polygon class="cls-10" points="947.46 585.04 827.15 296.5 566.2 437.91 947.46 585.04"/>
            <polygon class="cls-9" points="566.2 437.91 534.6 505.64 690.39 771.54 744.47 771.54 947.46 585.04 566.2 437.91"/>
            <polygon class="cls-6" points="566.2 437.91 671.26 263.6 827.15 296.5 566.2 437.91"/>
            <polygon class="cls-7" points="671.26 263.6 674.45 125.86 847.96 183.02 671.26 263.6"/>
            <polygon class="cls-10" points="671.26 263.6 827.15 296.5 847.96 183.02 671.26 263.6"/>
            <polygon class="cls-8" points="674.45 125.86 514.79 104.82 671.26 263.6 674.45 125.86"/>
            <polygon class="cls-9" points="514.79 104.82 443.63 328.26 671.26 263.6 514.79 104.82"/>
            <polygon class="cls-7" points="443.63 328.26 566.2 437.91 671.26 263.6 443.63 328.26"/>
            <polygon class="cls-10" points="443.63 328.26 404.71 414.36 566.2 437.91 443.63 328.26"/>
            <polygon class="cls-10" points="404.71 414.36 534.6 505.64 566.2 437.91 404.71 414.36"/>
            <polygon class="cls-6" points="404.71 414.36 335.87 675.47 534.6 505.64 404.71 414.36"/>
            <polygon class="cls-8" points="335.87 675.47 270 471.02 404.71 414.36 335.87 675.47"/>
            <polygon class="cls-9" points="270 471.02 188.14 602.83 335.87 675.47 270 471.02"/>
            <polygon class="cls-6" points="270 471.02 102.42 592.16 188.14 602.83 270 471.02"/>
            <polygon class="cls-9" points="270 471.02 32.25 467.37 102.42 592.16 270 471.02"/>
            <polygon class="cls-6" points="32.25 467.37 67.15 647.81 102.42 592.16 32.25 467.37"/>
            <polygon class="cls-9" points="32.25 467.37 67.15 647.81 -67.38 648.28 32.25 467.37"/>
            <polygon class="cls-6" points="32.25 467.37 -90.45 490.38 -67.38 648.28 32.25 467.37"/>
            <polygon class="cls-9" points="32.25 467.37 -44.81 349.82 -80.1 349.81 -90.45 490.38 32.25 467.37"/>
            <polygon class="cls-7" points="32.25 467.37 1.89 313.28 -44.81 349.82 32.25 467.37"/>
            <polygon class="cls-10" points="1.89 313.28 -44.81 349.82 -91.24 297.34 1.89 313.28"/>
            <polygon class="cls-6" points="-91.24 297.34 -37.86 217.13 1.89 313.28 -91.24 297.34"/>
            <polygon class="cls-6" points="1.89 313.28 121.86 231.97 32.25 467.37 1.89 313.28"/>
            <polygon class="cls-8" points="121.86 231.97 -37.86 217.13 1.89 313.28 121.86 231.97"/>
            <polygon class="cls-6" points="-37.86 217.13 -17.19 143.67 121.86 231.97 -37.86 217.13"/>
            <polygon class="cls-9" points="121.86 231.97 443.63 328.26 270 471.02 32.25 467.37 121.86 231.97"/>
            <polygon class="cls-7" points="443.63 328.26 404.71 414.36 270 471.02 443.63 328.26"/>
            <polygon class="cls-6" points="443.63 328.26 200.49 63.37 121.86 231.97 443.63 328.26"/>
            <polygon class="cls-9" points="200.49 63.37 -17.19 143.67 121.86 231.97 200.49 63.37"/>
            <polygon class="cls-10" points="-17.19 143.67 189.72 -45.66 200.49 63.37 -17.19 143.67"/>
            <polygon class="cls-7" points="514.79 104.82 200.49 63.37 443.63 328.26 514.79 104.82"/>
            <polygon class="cls-10" points="361.69 -44.72 497.69 26.14 674.45 125.86 514.79 104.82 200.49 63.37 361.69 -44.72"/>
            <polygon class="cls-7" points="361.69 -44.72 189.72 -45.66 200.49 63.37 361.69 -44.72"/>
            <polygon class="cls-9" points="189.72 -45.66 178.59 -142.15 -17.19 143.67 189.72 -45.66"/>
            <polygon class="cls-6" points="178.59 -142.15 -193.12 -123.41 -193.12 -89.68 -17.19 143.67 178.59 -142.15"/>
            <polygon class="cls-9" points="624.3 -165.58 361.69 -44.72 497.69 26.14 624.3 -165.58"/>
            <polygon class="cls-11" points="847.96 183.02 921.51 180.25 1000.78 -89.68 1000.78 -118.68 1000.78 -138.45 847.96 183.02"/>
          </g>
          <g class="cls-5">
            <polygon class="cls-6" points="1334.44 -118.76 1153.76 183.02 1327.27 125.86 1334.44 -118.76"/>
            <polygon class="cls-7" points="1334.44 -118.76 1504.03 26.14 1327.27 125.86 1334.44 -118.76"/>
            <polygon class="cls-8" points="1334.44 -118.76 1377.41 -165.58 1504.03 26.14 1334.44 -118.76"/>
            <polygon class="cls-7" points="1146.59 -165.58 1054.27 -165.58 1000.94 -165.58 1000.94 -118.68 1000.94 -138.45 1153.76 183.02 1334.44 -118.76 1146.59 -165.58"/>
            <polygon class="cls-6" points="1080.21 180.25 1000.94 -89.68 1000.94 107.11 1080.21 180.25"/>
            <polygon class="cls-9" points="1080.21 180.25 1000.94 169.9 1000.94 107.11 1080.21 180.25"/>
            <polygon class="cls-6" points="1153.76 183.02 1174.57 296.5 1080.21 180.25 1153.76 183.02"/>
            <polygon class="cls-10" points="1080.21 180.25 1174.57 296.5 1017.67 347.95 1080.21 180.25"/>
            <polygon class="cls-11" points="1017.67 347.95 1000.94 324.51 1000.88 366.01 1017.67 347.95"/>
            <polygon class="cls-8" points="1000.94 169.9 1000.94 249.55 1000.94 324.51 1017.67 347.95 1080.21 180.25 1000.94 169.9"/>
            <polygon class="cls-9" points="1017.67 347.95 1054.26 585.04 1017.56 602.94 1017.67 347.95"/>
            <polygon class="cls-9" points="1017.67 347.95 1000.88 366.01 1000.94 594.39 1017.56 602.94 1017.67 347.95"/>
            <polygon class="cls-11" points="1017.67 347.95 1174.57 296.5 1054.26 585.04 1017.67 347.95"/>
            <polygon class="cls-10" points="1054.26 585.04 1174.57 296.5 1435.52 437.91 1054.26 585.04"/>
            <polygon class="cls-9" points="1435.52 437.91 1467.12 505.64 1311.33 771.54 1257.25 771.54 1054.26 585.04 1435.52 437.91"/>
            <polygon class="cls-6" points="1435.52 437.91 1330.45 263.6 1174.57 296.5 1435.52 437.91"/>
            <polygon class="cls-7" points="1330.45 263.6 1327.27 125.86 1153.76 183.02 1330.45 263.6"/>
            <polygon class="cls-10" points="1330.45 263.6 1174.57 296.5 1153.76 183.02 1330.45 263.6"/>
            <polygon class="cls-8" points="1327.27 125.86 1486.93 104.82 1330.45 263.6 1327.27 125.86"/>
            <polygon class="cls-9" points="1486.93 104.82 1558.09 328.26 1330.45 263.6 1486.93 104.82"/>
            <polygon class="cls-7" points="1558.09 328.26 1435.52 437.91 1330.45 263.6 1558.09 328.26"/>
            <polygon class="cls-10" points="1558.09 328.26 1597.01 414.36 1435.52 437.91 1558.09 328.26"/>
            <polygon class="cls-10" points="1597.01 414.36 1467.12 505.64 1435.52 437.91 1597.01 414.36"/>
            <polygon class="cls-6" points="1597.01 414.36 1665.86 675.47 1467.12 505.64 1597.01 414.36"/>
            <polygon class="cls-8" points="1665.86 675.47 1731.72 471.02 1597.01 414.36 1665.86 675.47"/>
            <polygon class="cls-9" points="1731.72 471.02 1813.58 602.83 1665.86 675.47 1731.72 471.02"/>
            <polygon class="cls-6" points="1731.72 471.02 1899.3 592.16 1813.58 602.83 1731.72 471.02"/>
            <polygon class="cls-9" points="1731.72 471.02 1969.47 467.37 1899.3 592.16 1731.72 471.02"/>
            <polygon class="cls-6" points="1969.47 467.37 1934.57 647.81 1899.3 592.16 1969.47 467.37"/>
            <polygon class="cls-9" points="1969.47 467.37 1934.57 647.81 2069.1 648.28 1969.47 467.37"/>
            <polygon class="cls-6" points="1969.47 467.37 2092.17 490.38 2069.1 648.28 1969.47 467.37"/>
            <polygon class="cls-9" points="1969.47 467.37 2046.53 349.82 2081.82 349.81 2092.17 490.38 1969.47 467.37"/>
            <polygon class="cls-7" points="1969.47 467.37 1999.83 313.28 2046.53 349.82 1969.47 467.37"/>
            <polygon class="cls-10" points="1999.83 313.28 2046.53 349.82 2092.96 297.34 1999.83 313.28"/>
            <polygon class="cls-6" points="2092.96 297.34 2039.58 217.13 1999.83 313.28 2092.96 297.34"/>
            <polygon class="cls-6" points="1999.83 313.28 1879.86 231.97 1969.47 467.37 1999.83 313.28"/>
            <polygon class="cls-8" points="1879.86 231.97 2039.58 217.13 1999.83 313.28 1879.86 231.97"/>
            <polygon class="cls-6" points="2039.58 217.13 2018.91 143.67 1879.86 231.97 2039.58 217.13"/>
            <polygon class="cls-9" points="1879.86 231.97 1558.09 328.26 1731.72 471.02 1969.47 467.37 1879.86 231.97"/>
            <polygon class="cls-7" points="1558.09 328.26 1597.01 414.36 1731.72 471.02 1558.09 328.26"/>
            <polygon class="cls-6" points="1558.09 328.26 1801.23 63.37 1879.86 231.97 1558.09 328.26"/>
            <polygon class="cls-9" points="1801.23 63.37 2018.91 143.67 1879.86 231.97 1801.23 63.37"/>
            <polygon class="cls-10" points="2018.91 143.67 1812.01 -45.66 1801.23 63.37 2018.91 143.67"/>
            <polygon class="cls-7" points="1486.93 104.82 1801.23 63.37 1558.09 328.26 1486.93 104.82"/>
            <polygon class="cls-10" points="1640.03 -44.72 1504.03 26.14 1327.27 125.86 1486.93 104.82 1801.23 63.37 1640.03 -44.72"/>
            <polygon class="cls-7" points="1640.03 -44.72 1812.01 -45.66 1801.23 63.37 1640.03 -44.72"/>
            <polygon class="cls-9" points="1812.01 -45.66 1823.13 -142.15 2018.91 143.67 1812.01 -45.66"/>
            <polygon class="cls-6" points="1823.13 -142.15 2194.84 -123.41 2194.84 -89.68 2018.91 143.67 1823.13 -142.15"/>
            <polygon class="cls-9" points="1377.41 -165.58 1640.03 -44.72 1504.03 26.14 1377.41 -165.58"/>
            <polygon class="cls-11" points="1153.76 183.02 1080.21 180.25 1000.94 -89.68 1000.94 -118.68 1000.94 -138.45 1153.76 183.02"/>
          </g>
        </g>
      </g>
      <rect class="cls-12" y="0.42" width="2000" height="486"/>
    </g>
  </g>
</svg>
